<svg width="76" height="78" viewBox="0 0 76 78" fill="none" xmlns="http://www.w3.org/2000/svg">
<path d="M25.4202 60.5414C25.4202 60.8461 25.0677 61.0898 24.6234 61.0898C24.1177 61.1355 23.7653 60.8918 23.7653 60.5414C23.7653 60.2367 24.1177 59.993 24.5621 59.993C25.0218 59.9473 25.4202 60.191 25.4202 60.5414ZM20.6548 59.8559C20.5476 60.1605 20.854 60.5109 21.3137 60.6023C21.7121 60.7547 22.1718 60.6023 22.2637 60.2977C22.3556 59.993 22.0645 59.6426 21.6048 59.5055C21.2065 59.3988 20.7621 59.5512 20.6548 59.8559ZM27.4274 59.5969C26.9831 59.7035 26.6766 59.993 26.7226 60.3434C26.7685 60.648 27.1669 60.8461 27.6266 60.7395C28.071 60.6328 28.3774 60.3434 28.3315 60.0387C28.2855 59.7492 27.8718 59.5512 27.4274 59.5969ZM37.5097 1.21875C16.2573 1.21875 0 17.2605 0 38.3906C0 55.2855 10.6952 69.743 25.9718 74.8313C27.9331 75.1816 28.6226 73.9781 28.6226 72.9879C28.6226 72.0434 28.5766 66.8332 28.5766 63.634C28.5766 63.634 17.8508 65.9191 15.5984 59.0941C15.5984 59.0941 13.8516 54.6609 11.3387 53.5184C11.3387 53.5184 7.82984 51.1266 11.5839 51.1723C11.5839 51.1723 15.3992 51.477 17.4984 55.1027C20.854 60.9832 26.4774 59.2922 28.6685 58.2867C29.021 55.8492 30.0169 54.1582 31.1202 53.1527C22.5548 52.2082 13.9129 50.9742 13.9129 36.3187C13.9129 32.1293 15.0774 30.027 17.529 27.3457C17.1306 26.3555 15.8282 22.2727 17.9274 17.0016C21.1298 16.0113 28.5 21.1148 28.5 21.1148C31.5645 20.2617 34.8589 19.8199 38.1226 19.8199C41.3863 19.8199 44.6806 20.2617 47.7452 21.1148C47.7452 21.1148 55.1153 15.9961 58.3177 17.0016C60.4169 22.2879 59.1145 26.3555 58.7161 27.3457C61.1677 30.0422 62.6694 32.1445 62.6694 36.3187C62.6694 51.0199 53.6444 52.193 45.079 53.1527C46.4887 54.3562 47.6839 56.6414 47.6839 60.2215C47.6839 65.3555 47.6379 71.7082 47.6379 72.9574C47.6379 73.9477 48.3427 75.1512 50.2887 74.8008C65.6113 69.743 76 55.2855 76 38.3906C76 17.2605 58.7621 1.21875 37.5097 1.21875ZM14.8935 53.7621C14.6944 53.9145 14.7403 54.2648 15.0008 54.5543C15.246 54.798 15.5984 54.9047 15.7976 54.7066C15.9968 54.5543 15.9508 54.2039 15.6903 53.9145C15.4452 53.6707 15.0927 53.5641 14.8935 53.7621ZM13.2387 52.5281C13.1315 52.7262 13.2847 52.9699 13.5911 53.1223C13.8363 53.2746 14.1427 53.2289 14.25 53.0156C14.3573 52.8176 14.204 52.5738 13.8976 52.4215C13.5911 52.3301 13.346 52.3758 13.2387 52.5281ZM18.2032 57.9516C17.9581 58.1496 18.05 58.6066 18.4024 58.8961C18.7548 59.2465 19.1992 59.2922 19.3984 59.0484C19.5976 58.8504 19.5056 58.3934 19.1992 58.1039C18.8621 57.7535 18.4024 57.7078 18.2032 57.9516ZM16.4565 55.7121C16.2113 55.8645 16.2113 56.2605 16.4565 56.6109C16.7016 56.9613 17.1153 57.1137 17.3145 56.9613C17.5597 56.7633 17.5597 56.3672 17.3145 56.0168C17.1 55.6664 16.7016 55.5141 16.4565 55.7121Z" fill="#202433"/>
</svg>
