<svg width="584" height="584" viewBox="0 0 584 584" fill="none" xmlns="http://www.w3.org/2000/svg">
<path d="M521.894 182.441L548.577 208.948C595.816 255.877 595.816 331.964 548.577 378.893L404.843 521.681C374.24 552.083 324.604 552.083 293.974 521.681L257.625 485.571C276.63 504.451 307.424 504.451 326.429 485.571L521.295 291.987C551.708 261.774 551.926 212.897 521.894 182.441Z" fill="url(#paint0_linear_148_32)"/>
<path style="mix-blend-mode:color-dodge" d="M349.409 536.368C330.649 536.368 313.006 529.119 299.719 515.92L291.551 507.805H291.986C307.152 507.805 321.446 501.936 332.174 491.279L527.04 297.694C547.08 277.786 555.221 250.278 551.354 224.204C567.201 243.949 575.805 268.265 575.805 293.907C575.805 323.85 564.07 351.98 542.751 373.132L399.017 515.92C385.758 529.092 368.114 536.341 349.382 536.341L349.409 536.368Z" fill="url(#paint1_radial_148_32)"/>
<path d="M404.844 521.681L377.562 548.783C330.295 595.712 253.705 595.739 206.438 548.81L108.256 451.274C77.6251 420.845 77.6523 371.509 108.256 341.106L142.208 307.404C142.726 306.863 143.243 306.349 143.733 305.862C143.216 306.403 142.726 306.917 142.29 307.485C130.337 321.09 127.369 339.781 133.387 355.902C135.756 362.258 139.486 368.209 144.632 373.321L293.947 521.681C324.577 552.11 374.213 552.11 404.844 521.681Z" fill="url(#paint2_linear_148_32)"/>
<path style="mix-blend-mode:color-dodge" d="M291.987 575.886C261.874 575.886 233.53 564.228 212.238 543.076L114.057 445.54C100.797 432.367 93.4727 414.84 93.4727 396.177C93.4727 377.54 100.77 360.013 114.057 346.841L122.089 338.861C122.034 353.359 127.643 367.884 138.888 379.055L288.203 527.388C304.566 543.644 326.294 552.597 349.437 552.597C353.685 552.597 357.905 552.3 362.043 551.704C342.195 567.365 317.772 575.886 292.015 575.886H291.987Z" fill="url(#paint3_radial_148_32)"/>
<path d="M245.726 0V156.123C245.726 187.147 233.338 216.846 211.256 238.782L144.604 304.943C144.331 305.24 144.005 305.538 143.732 305.862L108.255 341.106C77.6515 371.509 77.6242 420.845 108.255 451.274L35.4218 378.92C-11.8177 331.964 -11.8177 255.85 35.4218 208.921L245.726 0Z" fill="url(#paint4_linear_148_32)"/>
<path style="mix-blend-mode:color-dodge" d="M41.222 373.185C19.903 352.006 8.16797 323.876 8.16797 293.934C8.16797 263.991 19.903 235.834 41.222 214.682L237.559 19.6099V156.123C237.559 185.173 226.178 212.491 205.485 233.021L138.832 299.208C138.505 299.533 138.151 299.911 137.798 300.263L102.484 335.372C86.1472 351.601 77.1349 373.212 77.1349 396.176C77.1349 400.829 77.5161 405.427 78.224 409.944L41.1948 373.158L41.222 373.185Z" fill="url(#paint5_radial_148_32)"/>
<path d="M521.296 291.959L439.396 373.321C453.5 359.31 457.121 338.888 450.287 321.55C447.945 315.491 444.297 309.838 439.369 304.943L379.741 245.707L338.301 388.116V0L438.035 99.105L493.524 154.256L521.895 182.441C551.927 212.87 551.709 261.746 521.296 291.959Z" fill="url(#paint6_linear_148_32)"/>
<path style="mix-blend-mode:color-dodge" d="M461.804 339.159C461.804 324.066 455.896 309.892 445.141 299.235L375.738 230.289L346.469 330.855V19.6099L432.262 104.839L516.095 188.175C542.86 215.304 542.615 259.312 515.496 286.225L461.777 339.591V339.159H461.804Z" fill="url(#paint7_radial_148_32)"/>
<path d="M245.727 388.116L245.019 386.466C235.762 364.909 218.282 347.895 196.418 339.131C218.282 330.368 235.762 313.354 245.019 291.797L245.727 290.147" fill="url(#paint8_linear_148_32)"/>
<path style="mix-blend-mode:color-dodge" d="M245.729 0V156.123C245.729 187.147 233.34 216.846 211.259 238.782L144.606 304.943C144.334 305.24 144.007 305.538 143.735 305.862L108.258 341.106C77.6543 371.509 77.627 420.845 108.258 451.274C-67.6582 276.515 245.729 254.092 245.729 0Z" fill="url(#paint9_radial_148_32)"/>
<path style="mix-blend-mode:color-dodge" d="M439.396 373.321C458.401 354.441 458.401 323.849 439.396 304.943L379.768 245.707L338.328 388.116V0C338.328 214.764 552.063 261.422 439.423 373.321H439.396Z" fill="url(#paint10_radial_148_32)"/>
<path style="mix-blend-mode:multiply" d="M135.402 478.241L108.256 451.274C77.6251 420.844 77.6523 371.508 108.256 341.106L142.208 307.404L142.29 307.485C130.337 321.09 127.369 339.781 133.387 355.901C108.664 383.247 73.3504 416.598 135.402 478.241Z" fill="url(#paint11_linear_148_32)"/>
<path style="mix-blend-mode:multiply" d="M432.453 494.713L405.307 521.68C374.676 552.11 325.013 552.083 294.41 521.68L260.484 487.951L260.566 487.87C274.261 499.744 293.076 502.693 309.303 496.715C336.83 521.275 370.401 556.356 432.453 494.713Z" fill="url(#paint12_linear_148_32)"/>
<path style="mix-blend-mode:multiply" d="M521.294 291.959L439.395 373.321C453.498 359.31 457.12 338.888 450.285 321.55C491.018 281.465 573.571 233.778 493.523 154.256L521.893 182.441C551.925 212.87 551.707 261.746 521.294 291.959Z" fill="url(#paint13_linear_148_32)"/>
<defs>
<linearGradient id="paint0_linear_148_32" x1="329.315" y1="427.066" x2="523.364" y2="319.63" gradientUnits="userSpaceOnUse">
<stop stop-color="#2B4286"/>
<stop offset="1" stop-color="#5FA0C0"/>
</linearGradient>
<radialGradient id="paint1_radial_148_32" cx="0" cy="0" r="1" gradientUnits="userSpaceOnUse" gradientTransform="translate(703.964 288.633) scale(238.648 237.078)">
<stop stop-color="white"/>
<stop offset="0.14" stop-color="#C0BDBD"/>
<stop offset="0.31" stop-color="#807B7B"/>
<stop offset="0.46" stop-color="#4D4646"/>
<stop offset="0.58" stop-color="#281F1F"/>
<stop offset="0.69" stop-color="#120808"/>
<stop offset="0.75" stop-color="#0A0000"/>
</radialGradient>
<linearGradient id="paint2_linear_148_32" x1="328.008" y1="555.329" x2="95.8028" y2="345.236" gradientUnits="userSpaceOnUse">
<stop stop-color="#AF316F"/>
<stop offset="1" stop-color="#371662"/>
</linearGradient>
<radialGradient id="paint3_radial_148_32" cx="0" cy="0" r="1" gradientUnits="userSpaceOnUse" gradientTransform="translate(271.567 653.271) scale(184.956 183.739)">
<stop stop-color="white"/>
<stop offset="0.14" stop-color="#C0BDBD"/>
<stop offset="0.31" stop-color="#807B7B"/>
<stop offset="0.46" stop-color="#4D4646"/>
<stop offset="0.58" stop-color="#281F1F"/>
<stop offset="0.69" stop-color="#120808"/>
<stop offset="0.75" stop-color="#0A0000"/>
</radialGradient>
<linearGradient id="paint4_linear_148_32" x1="197.996" y1="89.2594" x2="41.1021" y2="385.703" gradientUnits="userSpaceOnUse">
<stop stop-color="#2B4286"/>
<stop offset="1" stop-color="#5FA0C0"/>
</linearGradient>
<radialGradient id="paint5_radial_148_32" cx="0" cy="0" r="1" gradientUnits="userSpaceOnUse" gradientTransform="translate(-197.181 309.351) scale(376.282 373.808)">
<stop stop-color="white"/>
<stop offset="0.14" stop-color="#C0BDBD"/>
<stop offset="0.31" stop-color="#807B7B"/>
<stop offset="0.46" stop-color="#4D4646"/>
<stop offset="0.58" stop-color="#281F1F"/>
<stop offset="0.69" stop-color="#120808"/>
<stop offset="0.75" stop-color="#0A0000"/>
</radialGradient>
<linearGradient id="paint6_linear_148_32" x1="375.847" y1="52.9876" x2="462.816" y2="395.803" gradientUnits="userSpaceOnUse">
<stop stop-color="#AF316F"/>
<stop offset="1" stop-color="#371662"/>
</linearGradient>
<radialGradient id="paint7_radial_148_32" cx="0" cy="0" r="1" gradientUnits="userSpaceOnUse" gradientTransform="translate(486.88 29.6718) scale(206.52 205.161)">
<stop stop-color="white"/>
<stop offset="0.14" stop-color="#C0BDBD"/>
<stop offset="0.31" stop-color="#807B7B"/>
<stop offset="0.46" stop-color="#4D4646"/>
<stop offset="0.58" stop-color="#281F1F"/>
<stop offset="0.69" stop-color="#120808"/>
<stop offset="0.75" stop-color="#0A0000"/>
</radialGradient>
<linearGradient id="paint8_linear_148_32" x1="247.36" y1="280.599" x2="208.917" y2="403.652" gradientUnits="userSpaceOnUse">
<stop stop-color="#AF316F"/>
<stop offset="1" stop-color="#371662"/>
</linearGradient>
<radialGradient id="paint9_radial_148_32" cx="0" cy="0" r="1" gradientUnits="userSpaceOnUse" gradientTransform="translate(-150.593 399.125) scale(367.733 365.314)">
<stop stop-color="white"/>
<stop offset="0.14" stop-color="#C0BDBD"/>
<stop offset="0.31" stop-color="#807B7B"/>
<stop offset="0.46" stop-color="#4D4646"/>
<stop offset="0.58" stop-color="#281F1F"/>
<stop offset="0.69" stop-color="#120808"/>
<stop offset="0.75" stop-color="#0A0000"/>
</radialGradient>
<radialGradient id="paint10_radial_148_32" cx="0" cy="0" r="1" gradientUnits="userSpaceOnUse" gradientTransform="translate(116.343 48.7681) scale(459.408 456.386)">
<stop stop-color="white"/>
<stop offset="0.14" stop-color="#C0BDBD"/>
<stop offset="0.31" stop-color="#807B7B"/>
<stop offset="0.46" stop-color="#4D4646"/>
<stop offset="0.58" stop-color="#281F1F"/>
<stop offset="0.69" stop-color="#120808"/>
<stop offset="0.75" stop-color="#0A0000"/>
</radialGradient>
<linearGradient id="paint11_linear_148_32" x1="112.939" y1="273.323" x2="115.68" y2="528.389" gradientUnits="userSpaceOnUse">
<stop stop-color="#A4A4A4"/>
<stop offset="1" stop-color="white" stop-opacity="0"/>
</linearGradient>
<linearGradient id="paint12_linear_148_32" x1="226.178" y1="517.028" x2="482.932" y2="514.233" gradientUnits="userSpaceOnUse">
<stop stop-color="#A4A4A4"/>
<stop offset="1" stop-color="white" stop-opacity="0"/>
</linearGradient>
<linearGradient id="paint13_linear_148_32" x1="394.442" y1="407.347" x2="558.999" y2="138.437" gradientUnits="userSpaceOnUse">
<stop stop-color="#A4A4A4"/>
<stop offset="1" stop-color="white" stop-opacity="0"/>
</linearGradient>
</defs>
</svg>
